<?xml version="1.0" encoding="UTF-8"?>
<svg width="42px" height="42px" viewBox="0 0 42 42" version="1.1" xmlns="http://www.w3.org/2000/svg" xmlns:xlink="http://www.w3.org/1999/xlink">
    <!-- Generator: Sketch 62 (91390) - https://sketch.com -->
    <title>pause</title>
    <desc>Created with Sketch.</desc>
    <g id="控件" stroke="none" stroke-width="1" fill="none" fill-rule="evenodd">
        <g id="pause">
            <circle id="Oval-2" fill="#00FFFF" cx="21" cy="21" r="21"></circle>
            <path d="M18.7058824,13 C18.9986471,13 19.2352941,13.3250909 19.2352941,13.7272727 L19.2352941,13.7272727 L19.2352941,28.2727273 C19.2352941,28.6749091 18.9986471,29 18.7058824,29 L18.7058824,29 L15.5294118,29 C15.2366471,29 15,28.6749091 15,28.2727273 L15,28.2727273 L15,13.7272727 C15,13.3250909 15.2366471,13 15.5294118,13 L15.5294118,13 Z M26.4705882,13 C26.7633529,13 27,13.3250909 27,13.7272727 L27,13.7272727 L27,28.2727273 C27,28.6749091 26.7633529,29 26.4705882,29 L26.4705882,29 L23.2941176,29 C23.0013529,29 22.7647059,28.6749091 22.7647059,28.2727273 L22.7647059,28.2727273 L22.7647059,13.7272727 C22.7647059,13.3250909 23.0013529,13 23.2941176,13 L23.2941176,13 Z" id="Combined-Shape" fill="#121212" fill-rule="nonzero"></path>
        </g>
    </g>
</svg>