<svg width="14" height="14" viewBox="0 0 14 14" fill="none" xmlns="http://www.w3.org/2000/svg">
<path opacity="0.5" fill-rule="evenodd" clip-rule="evenodd" d="M14 7.00002C14 7.00002 14 4.39602 13.6801 3.14862C13.5044 2.46122 12.985 1.91942 12.3235 1.73322C11.1272 1.40002 7 1.40002 7 1.40002C7 1.40002 2.8749 1.40002 1.6765 1.73322C1.0178 1.91662 0.4977 2.45912 0.3199 3.14862C0 4.39602 0 7.00002 0 7.00002C0 7.00002 0 9.60402 0.3199 10.8514C0.4956 11.5388 1.015 12.0806 1.6765 12.2668C2.8749 12.6 7 12.6 7 12.6C7 12.6 11.1272 12.6 12.3235 12.2668C12.9822 12.0834 13.5023 11.5409 13.6801 10.8514C14 9.60402 14 7.00002 14 7.00002ZM9.24946 7.73363C9.75294 7.43154 9.75294 6.70185 9.24946 6.39976L6.53896 4.77346C6.02056 4.46242 5.36102 4.83584 5.36102 5.4404V8.69299C5.36102 9.29755 6.02056 9.67097 6.53897 9.35993L9.24946 7.73363Z" fill="white"/>
</svg>
